<!DOCTYPE svg PUBLIC "-//W3C//DTD SVG 1.1//EN" "http://www.w3.org/Graphics/SVG/1.1/DTD/svg11.dtd">
<!-- Uploaded to: SVG Repo, www.svgrepo.com, Transformed by: SVG Repo Mixer Tools -->
<svg height="82px" width="82px" version="1.1" id="Layer_1" xmlns="http://www.w3.org/2000/svg" xmlns:xlink="http://www.w3.org/1999/xlink" viewBox="0 0 512 512" xml:space="preserve" fill="#fdfcfc">
<g id="SVGRepo_bgCarrier" stroke-width="0"/>
<g id="SVGRepo_tracerCarrier" stroke-linecap="round" stroke-linejoin="round"/>
<g id="SVGRepo_iconCarrier"> <path style="fill:#fffafa;" d="M467.478,489.739H66.782c-24.588,0-44.522-19.934-44.522-44.522V44.521 c0-12.295,9.966-22.261,22.261-22.261h422.957c12.295,0,22.261,9.966,22.261,22.261v422.957 C489.739,479.773,479.773,489.739,467.478,489.739z"/> <path style="fill:#fffafa;" d="M509.554,487.293l-22.261,22.261c-1.631,1.629-3.768,2.445-5.904,2.445s-4.273-0.815-5.904-2.445 c-3.26-3.26-3.26-8.546,0-11.805l8.011-8.011H52.869c-16.877,0-30.609-13.731-30.609-30.609V28.5l-8.009,8.011 c-3.261,3.26-8.546,3.26-11.806,0s-3.26-8.546,0-11.805L24.706,2.445c3.261-3.26,8.546-3.26,11.806,0l22.261,22.261 c3.26,3.26,3.26,8.546,0,11.805c-1.631,1.629-3.768,2.445-5.904,2.445s-4.273-0.815-5.904-2.445L38.956,28.5v430.63 c0,7.672,6.241,13.913,13.913,13.913h430.629l-8.011-8.011c-3.26-3.26-3.26-8.546,0-11.805c3.261-3.26,8.546-3.26,11.806,0 l22.261,22.261C512.814,478.748,512.814,484.034,509.554,487.293z"/> <path style="fill:#ffffff;" d="M512,64v31.481c0,4.61-3.738,8.348-8.348,8.348c-4.61,0-8.348-3.738-8.348-8.348v-9.917 L317.712,272.871c-1.577,1.664-3.768,2.607-6.061,2.607h-74.296L72.873,450.926c-1.644,1.753-3.866,2.639-6.092,2.639 c-2.046,0-4.097-0.748-5.708-2.257c-3.364-3.153-3.534-8.437-0.381-11.799l166.957-178.087c1.578-1.684,3.782-2.639,6.091-2.639 h74.322L484.827,72.348h-12.656c-4.61,0-8.348-3.738-8.348-8.348s3.738-8.348,8.348-8.348h31.481C508.262,55.652,512,59.389,512,64z "/> <path style="fill:#fdf7f7;" d="M230.956,144.695c0,4.61-3.738,8.348-8.348,8.348h-4.452c-4.61,0-8.348-3.738-8.348-8.348 c0-4.61,3.738-8.348,8.348-8.348h4.452C227.219,136.348,230.956,140.085,230.956,144.695z M260.452,136.348H256 c-4.61,0-8.348,3.738-8.348,8.348c0,4.61,3.738,8.348,8.348,8.348h4.452c4.61,0,8.348-3.738,8.348-8.348 C268.8,140.085,265.062,136.348,260.452,136.348z M71.235,136.348h-4.452c-4.61,0-8.348,3.738-8.348,8.348 c0,4.61,3.738,8.348,8.348,8.348h4.452c4.61,0,8.348-3.738,8.348-8.348C79.582,140.085,75.845,136.348,71.235,136.348z M336.139,136.348h-4.452c-4.61,0-8.348,3.738-8.348,8.348c0,4.61,3.738,8.348,8.348,8.348h4.452c4.61,0,8.348-3.738,8.348-8.348 C344.487,140.085,340.749,136.348,336.139,136.348z M298.295,136.348h-4.452c-4.61,0-8.348,3.738-8.348,8.348 c0,4.61,3.738,8.348,8.348,8.348h4.452c4.61,0,8.348-3.738,8.348-8.348C306.643,140.085,302.906,136.348,298.295,136.348z M184.765,136.348h-4.452c-4.61,0-8.348,3.738-8.348,8.348c0,4.61,3.738,8.348,8.348,8.348h4.452c4.61,0,8.348-3.738,8.348-8.348 C193.113,140.085,189.375,136.348,184.765,136.348z M109.078,136.348h-4.452c-4.61,0-8.348,3.738-8.348,8.348 c0,4.61,3.738,8.348,8.348,8.348h4.452c4.61,0,8.348-3.738,8.348-8.348C117.426,140.085,113.688,136.348,109.078,136.348z M146.921,136.348h-4.452c-4.61,0-8.348,3.738-8.348,8.348c0,4.61,3.738,8.348,8.348,8.348h4.452c4.61,0,8.348-3.738,8.348-8.348 C155.269,140.085,151.532,136.348,146.921,136.348z M445.217,434.643c-4.61,0-8.348,3.738-8.348,8.348v4.452 c0,4.61,3.738,8.348,8.348,8.348s8.348-3.738,8.348-8.348v-4.452C453.565,438.381,449.827,434.643,445.217,434.643z M445.217,283.269c-4.61,0-8.348,3.738-8.348,8.348v4.452c0,4.61,3.738,8.348,8.348,8.348s8.348-3.738,8.348-8.348v-4.452 C453.565,287.007,449.827,283.269,445.217,283.269z M445.217,245.426c-4.61,0-8.348,3.738-8.348,8.348v4.452 c0,4.61,3.738,8.348,8.348,8.348s8.348-3.738,8.348-8.348v-4.452C453.565,249.163,449.827,245.426,445.217,245.426z M445.217,207.582c-4.61,0-8.348,3.738-8.348,8.348v4.452c0,4.61,3.738,8.348,8.348,8.348s8.348-3.738,8.348-8.348v-4.452 C453.565,211.32,449.827,207.582,445.217,207.582z M445.217,169.739c-4.61,0-8.348,3.738-8.348,8.348v4.452 c0,4.61,3.738,8.348,8.348,8.348s8.348-3.738,8.348-8.348v-4.452C453.565,173.476,449.827,169.739,445.217,169.739z M445.217,358.956c-4.61,0-8.348,3.738-8.348,8.348v4.452c0,4.61,3.738,8.348,8.348,8.348s8.348-3.738,8.348-8.348v-4.452 C453.565,362.694,449.827,358.956,445.217,358.956z M445.217,396.8c-4.61,0-8.348,3.738-8.348,8.348v4.452 c0,4.61,3.738,8.348,8.348,8.348s8.348-3.738,8.348-8.348v-4.452C453.565,400.537,449.827,396.8,445.217,396.8z M373.982,136.348 h-4.452c-4.61,0-8.348,3.738-8.348,8.348c0,4.61,3.738,8.348,8.348,8.348h4.452c4.61,0,8.348-3.738,8.348-8.348 C382.33,140.085,378.593,136.348,373.982,136.348z M445.217,321.113c-4.61,0-8.348,3.738-8.348,8.348v4.452 c0,4.61,3.738,8.348,8.348,8.348s8.348-3.738,8.348-8.348v-4.452C453.565,324.85,449.827,321.113,445.217,321.113z"/> </g>
</svg>