<?xml version="1.0" encoding="UTF-8"?>
<svg xmlns="http://www.w3.org/2000/svg" xmlns:xlink="http://www.w3.org/1999/xlink" width="72px" height="72px" viewBox="0 0 72 72" version="1.1">
<g id="surface1">
<path style=" stroke:none;fill-rule:nonzero;fill:rgb(98.039216%,98.039216%,98.039216%);fill-opacity:1;" d="M 71.851562 62.433594 L 66.054688 48.296875 L 66.054688 8.820312 C 66.054688 7.714844 65.164062 6.816406 64.046875 6.816406 L 7.945312 6.816406 C 6.84375 6.816406 5.941406 7.707031 5.941406 8.820312 L 5.941406 48.285156 L 0.15625 62.433594 C -0.105469 63.0625 -0.0351562 63.75 0.34375 64.304688 C 0.710938 64.863281 1.34375 65.183594 2.003906 65.183594 L 70.011719 65.183594 C 70.679688 65.183594 71.304688 64.863281 71.671875 64.304688 C 72.03125 63.75 72.101562 63.035156 71.851562 62.433594 Z M 9.949219 10.835938 L 62.058594 10.835938 L 62.058594 46.695312 L 9.949219 46.695312 Z M 4.992188 61.1875 L 9.300781 50.679688 L 62.722656 50.679688 L 67.027344 61.1875 Z M 4.992188 61.1875 "/>
<path style=" stroke:none;fill-rule:nonzero;fill:rgb(98.039216%,98.039216%,98.039216%);fill-opacity:1;" d="M 40.355469 53.941406 L 31.652344 53.941406 C 30.550781 53.941406 29.648438 54.832031 29.648438 55.949219 C 29.648438 57.046875 30.535156 57.949219 31.652344 57.949219 L 40.355469 57.949219 C 41.460938 57.949219 42.359375 57.058594 42.359375 55.949219 C 42.359375 54.832031 41.460938 53.941406 40.355469 53.941406 Z M 40.355469 53.941406 "/>
<path style=" stroke:none;fill-rule:nonzero;fill:rgb(98.039216%,98.039216%,98.039216%);fill-opacity:1;" d="M 48.730469 22.171875 L 36.753906 17.289062 C 36.265625 17.085938 35.71875 17.085938 35.234375 17.289062 L 23.253906 22.171875 C 22.507812 22.480469 22.011719 23.203125 22.011719 24.035156 C 22.011719 24.839844 22.507812 25.574219 23.253906 25.894531 L 26.351562 27.152344 L 26.351562 37.507812 C 26.351562 38.609375 27.242188 39.507812 28.355469 39.507812 L 43.617188 39.507812 C 44.71875 39.507812 45.621094 38.621094 45.621094 37.507812 L 45.621094 27.152344 L 48.71875 25.894531 C 49.464844 25.585938 49.960938 24.867188 49.960938 24.035156 C 49.984375 23.214844 49.488281 22.492188 48.730469 22.171875 Z M 41.648438 35.5 L 30.382812 35.5 L 30.382812 28.777344 L 35.257812 30.78125 C 36.003906 31.019531 36.003906 31.019531 36.773438 30.78125 L 41.648438 28.777344 Z M 36.003906 26.773438 L 29.3125 24.035156 L 36.003906 21.296875 L 42.691406 24.035156 Z M 36.003906 26.773438 "/>
</g>
</svg>
