<?xml version="1.0" encoding="UTF-8"?>
<svg xmlns="http://www.w3.org/2000/svg" xmlns:xlink="http://www.w3.org/1999/xlink" width="92px" height="92px" viewBox="0 0 92 92" version="1.1">
<g id="surface1">
<path style=" stroke:none;fill-rule:nonzero;fill:rgb(97.647059%,96.078432%,96.078432%);fill-opacity:1;" d="M 77.375 25.847656 C 75.664062 14.714844 70.742188 6.398438 63.507812 2.425781 C 61.429688 1.289062 59.207031 0.539062 56.898438 0.203125 C 44.675781 -1.578125 30.671875 8.425781 22.050781 25.089844 C 21.699219 25.773438 21.664062 26.613281 21.964844 27.28125 C 22.261719 27.953125 22.84375 28.351562 23.480469 28.316406 C 24.429688 28.265625 25.386719 28.308594 26.316406 28.445312 C 32.625 29.363281 37.328125 34.386719 36.597656 39.410156 C 35.863281 44.433594 29.921875 47.902344 23.617188 46.988281 C 21.421875 46.667969 19.355469 45.851562 17.632812 44.628906 C 17.152344 44.285156 16.546875 44.265625 16.015625 44.578125 C 15.488281 44.890625 15.097656 45.492188 14.976562 46.191406 C 11.59375 65.84375 17.019531 83.269531 28.480469 89.5625 C 30.558594 90.703125 32.78125 91.449219 35.089844 91.785156 C 35.09375 91.785156 35.089844 91.785156 35.089844 91.785156 C 49.101562 93.828125 64.601562 81.042969 72.78125 60.691406 C 77.421875 49.152344 79.050781 36.777344 77.375 25.847656 Z M 61.023438 11.808594 C 65.054688 11.808594 68.320312 15.074219 68.320312 19.105469 C 68.320312 23.136719 65.054688 26.402344 61.023438 26.402344 C 56.992188 26.402344 53.726562 23.132812 53.726562 19.105469 C 53.726562 15.074219 56.992188 11.808594 61.023438 11.808594 Z M 46 77.476562 C 43.164062 77.476562 40.863281 75.179688 40.863281 72.34375 C 40.863281 69.507812 43.164062 67.207031 46 67.207031 C 48.835938 67.207031 51.132812 69.507812 51.132812 72.34375 C 51.132812 75.179688 48.835938 77.476562 46 77.476562 Z M 57.78125 65.855469 C 54.199219 65.855469 51.292969 62.953125 51.292969 59.371094 C 51.292969 55.789062 54.199219 52.886719 57.78125 52.886719 C 61.359375 52.886719 64.265625 55.789062 64.265625 59.371094 C 64.265625 62.953125 61.363281 65.855469 57.78125 65.855469 Z M 64.265625 45.316406 C 60.683594 45.316406 57.78125 42.414062 57.78125 38.832031 C 57.78125 35.25 60.683594 32.347656 64.265625 32.347656 C 67.847656 32.347656 70.753906 35.25 70.753906 38.832031 C 70.753906 42.414062 67.847656 45.316406 64.265625 45.316406 Z M 64.265625 45.316406 "/>
</g>
</svg>
