<?xml version="1.0" encoding="UTF-8"?>
<svg xmlns="http://www.w3.org/2000/svg" xmlns:xlink="http://www.w3.org/1999/xlink" width="92px" height="92px" viewBox="0 0 92 91" version="1.1">
<g id="surface1">
<path style="fill-rule:nonzero;fill:rgb(96.470588%,98.431373%,95.686275%);fill-opacity:1;stroke-width:1;stroke-linecap:butt;stroke-linejoin:miter;stroke:rgb(96.470588%,98.431373%,95.686275%);stroke-opacity:1;stroke-miterlimit:4;" d="M 30.747284 1.947802 C 30.721197 1.568681 30.414675 1.268681 30.034784 1.25055 L 30.033153 1.25055 C 23.891305 0.981868 18.445653 3.625824 13.575544 9.25 L 4 9.25 C 3.649457 9.25 3.357609 9.489011 3.274457 9.813737 L 3.272826 9.818682 L 1.272283 17.818133 C 1.259239 17.872528 1.251087 17.935166 1.251087 17.999451 C 1.251087 18.413188 1.585326 18.749451 2.001087 18.749451 L 7.303261 18.749451 C 6.975544 19.377473 6.647826 20.008792 6.326631 20.671429 C 6.279348 20.768682 6.251631 20.88077 6.251631 20.999451 C 6.251631 21.207144 6.334783 21.395056 6.471739 21.531869 L 10.471196 25.532419 C 10.606522 25.667584 10.794022 25.751649 11.001087 25.751649 C 11.125001 25.751649 11.240761 25.720331 11.343479 25.669232 L 11.340218 25.67088 C 11.980979 25.346155 12.618479 25.016485 13.251088 24.681869 L 13.251088 30.157694 C 13.251088 30.159342 13.251088 30.159342 13.251088 30.159342 C 13.251088 30.573078 13.585327 30.907694 13.999457 30.907694 C 13.999457 30.907694 13.999457 30.907694 14.001088 30.907694 C 14.066305 30.907694 14.128262 30.899452 14.188588 30.884617 L 14.182066 30.886265 L 22.18261 28.886814 C 22.510327 28.8011 22.750001 28.507694 22.750001 28.158243 L 22.750001 18.573078 C 27.853262 14.361539 31.244567 9.124726 30.747284 1.949451 Z M 2.961413 17.249451 L 4.585326 10.750001 L 12.344566 10.750001 C 10.882066 12.639012 9.481522 14.763737 8.244022 16.992308 L 8.113587 17.249451 Z M 21.250001 27.569781 L 14.749457 29.195056 L 14.749457 23.864287 C 17.260327 22.49121 19.384783 21.126375 21.408153 19.632968 L 21.250001 19.743407 Z M 11.146196 24.083518 L 7.909783 20.847803 C 13.929348 8.668132 20.896197 2.732418 29.183697 2.732418 L 29.288045 2.732418 C 29.615762 13.062638 20.847284 19.120331 11.146196 24.085166 Z M 22.999458 6.25 C 21.481523 6.25 20.250544 7.481319 20.250544 8.999451 C 20.250544 10.519231 21.481523 11.75055 22.999458 11.75055 C 24.519023 11.75055 25.750001 10.519231 25.750001 8.999451 C 25.748371 7.481319 24.517392 6.251649 22.999458 6.25 Z M 22.999458 10.25055 C 22.309784 10.25055 21.750544 9.69011 21.750544 8.999451 C 21.750544 8.31044 22.309784 7.75 22.999458 7.75 C 23.690762 7.75 24.250001 8.31044 24.250001 8.999451 C 24.248371 9.69011 23.690762 10.248902 22.999458 10.25055 Z M 4.479348 24.251649 L 4.003261 24.250001 C 3.644565 24.322529 3.416305 24.436265 3.303805 24.72143 L 1.303261 29.72088 C 1.269022 29.803298 1.249457 29.898902 1.249457 29.999452 C 1.249457 30.413188 1.585326 30.749452 1.999457 30.749452 C 2.100544 30.749452 2.196739 30.729672 2.284783 30.695056 L 2.278261 30.696705 L 7.283696 28.700551 C 7.549457 28.591759 7.738587 28.339562 7.753261 28.042858 L 7.753261 28.04121 C 7.774457 27.637364 7.802174 27.286265 7.825 26.986265 C 7.903261 25.98077 7.955435 25.313188 7.495653 24.813737 C 6.986957 24.263188 6.253261 24.258243 4.480979 24.251649 Z M 6.328261 26.87088 C 6.313587 27.057144 6.297283 27.259891 6.282609 27.484067 L 3.344565 28.656045 L 4.505435 25.751649 C 5.402174 25.756595 6.238587 25.759891 6.355979 25.779671 C 6.367392 25.903298 6.372283 26.048353 6.372283 26.196704 C 6.372283 26.434067 6.357609 26.668133 6.326631 26.897254 Z M 6.328261 26.87088 " transform="matrix(2.395833,0,0,2.369792,7.666666,7.583333)"/>
</g>
</svg>
