<?xml version="1.0" encoding="UTF-8"?>
<svg xmlns="http://www.w3.org/2000/svg" xmlns:xlink="http://www.w3.org/1999/xlink" width="92px" height="92px" viewBox="0 0 92 92" version="1.1">
<g id="surface1">
<path style="fill:none;stroke-width:1.5;stroke-linecap:round;stroke-linejoin:round;stroke:rgb(98.039216%,97.647059%,97.647059%);stroke-opacity:1;stroke-miterlimit:4;" d="M 22.000212 11.819591 C 22.000212 6.296705 17.522886 1.82044 12 1.82044 C 6.477114 1.82044 1.999788 6.296705 1.999788 11.819591 C 1.999788 17.342476 6.477114 21.819803 12 21.819803 M 1.999788 11.819591 L 22.000212 11.819591 " transform="matrix(3.68,0,0,3.68,1.84,0)"/>
<path style="fill:none;stroke-width:1.5;stroke-linecap:round;stroke-linejoin:round;stroke:rgb(98.039216%,97.647059%,97.647059%);stroke-opacity:1;stroke-miterlimit:4;" d="M 12 21.819803 C 10.070228 21.819803 8.500297 17.340353 8.500297 11.819591 C 8.500297 6.29989 10.070228 1.82044 12 1.82044 C 13.929772 1.82044 15.499703 6.29989 15.499703 11.819591 M 18.369947 21.690302 C 20.302904 21.690302 21.86965 20.122495 21.86965 18.189538 C 21.86965 16.256581 20.302904 14.689835 18.369947 14.689835 C 16.43699 14.689835 14.870245 16.256581 14.870245 18.189538 C 14.870245 20.122495 16.43699 21.690302 18.369947 21.690302 M 23.000127 22.819718 L 20.840014 20.670219 " transform="matrix(3.68,0,0,3.68,1.84,0)"/>
</g>
</svg>
